<svg width="323" height="72" viewBox="0 0 323 72" fill="none" xmlns="http://www.w3.org/2000/svg">
    <path
        d="M64 48.2C64 42.3 59.2 37.5 53.3 37.5C47.4 37.5 42.6 42.3 42.6 48.2C42.6 51.7 45.8 57 48.2 61H17.9C16.6 61 15.2 60.5 14.2 59.4C12.9 58.1 12.3 56.2 12.9 54.3C13.4 52.2 15.8 50.3 18.5 50.3H28.9C31.8 50.3 34.5 49.2 36.4 47.1C39.3 44.2 40.4 39.9 38.8 35.9C37.5 31.9 33.2 29 28.7 29H15.2C17.9 25 21.3 19.1 21.3 15.7C21.3 9.8 16.5 5 10.6 5C4.7 5 0 9.8 0 15.7C0 20.5 6.1 29.6 8 32.2C8.3 33.3 9.3 34.3 10.7 34.3H28.6C31 34.3 33.1 35.6 33.7 37.8C34.5 39.9 34 42.1 32.4 43.4C31.3 44.5 30 45 28.7 45H18.1C12.8 45 8.2 48.5 7.4 53.5C6.6 57 7.7 60.7 10.3 63.4C12.4 65.5 15.1 66.6 17.8 66.6H53.3C54.4 66.6 55.4 65.8 55.7 65C57.9 62.1 64 52.7 64 48.2ZM10.7 10.3C13.6 10.3 16 12.7 16 15.6C16 17.5 13.6 22 10.7 26.3C7.8 22 5.4 17.2 5.4 15.6C5.3 12.7 7.7 10.3 10.7 10.3ZM53.3 42.9C56.2 42.9 58.6 45.3 58.6 48.2C58.6 50.1 56.2 54.6 53.3 58.9C50.4 54.6 48 49.8 48 48.2C48 45.3 50.4 42.9 53.3 42.9Z"
        fill="#EEC41E" />
    <path
        d="M53.3 50.1C54.7911 50.1 56 48.8912 56 47.4C56 45.9088 54.7911 44.7 53.3 44.7C51.8088 44.7 50.6 45.9088 50.6 47.4C50.6 48.8912 51.8088 50.1 53.3 50.1Z"
        fill="#EEC41E" />
    <path
        d="M10.7 17.6C12.1912 17.6 13.4 16.3912 13.4 14.9C13.4 13.4088 12.1912 12.2 10.7 12.2C9.20883 12.2 8 13.4088 8 14.9C8 16.3912 9.20883 17.6 10.7 17.6Z"
        fill="#EEC41E" />
</svg>